<?xml version="1.0" standalone="no"?>
<!DOCTYPE svg PUBLIC "-//W3C//DTD SVG 20010904//EN"
 "http://www.w3.org/TR/2001/REC-SVG-20010904/DTD/svg10.dtd">
<svg version="1.0" xmlns="http://www.w3.org/2000/svg"
 width="104.000000pt" height="104.000000pt" viewBox="0 0 104.000000 104.000000"
 preserveAspectRatio="xMidYMid meet">
<metadata>
Created by potrace 1.16, written by Peter Selinger 2001-2019
</metadata>
<g transform="translate(0.000000,104.000000) scale(0.100000,-0.100000)"
fill="#000000" stroke="none">
<path d="M424 592 c-23 -16 -44 -58 -44 -89 0 -29 21 -63 38 -63 22 0 53 36
62 71 9 33 8 45 -5 65 -16 24 -32 30 -51 16z m34 -61 c4 -37 -21 -73 -44 -64
-19 7 -18 53 2 81 21 30 38 23 42 -17z"/>
<path d="M576 578 c-3 -13 -6 -34 -6 -48 0 -24 -2 -23 -35 15 l-34 40 -1 -72
c0 -59 3 -73 15 -73 12 0 14 9 9 43 l-6 42 26 -30 c14 -16 25 -33 26 -37 0 -5
4 -8 9 -8 11 0 22 132 12 143 -5 5 -11 -2 -15 -15z"/>
<path d="M340 556 c0 -47 -11 -50 -40 -10 -31 42 -40 42 -40 2 0 -53 12 -108
23 -108 6 0 7 16 3 40 -8 50 2 51 34 2 l24 -37 7 30 c11 47 10 115 -1 115 -5
0 -10 -15 -10 -34z"/>
<path d="M620 515 c0 -81 4 -86 68 -69 34 10 26 24 -13 24 -28 0 -35 4 -35 19
0 16 8 20 37 23 20 2 38 9 41 16 3 10 -6 12 -34 10 -29 -2 -39 1 -39 12 0 9
11 16 30 18 54 6 52 22 -3 22 l-52 0 0 -75z"/>
</g>
</svg>
