<?xml version="1.0" standalone="no"?>
<!DOCTYPE svg PUBLIC "-//W3C//DTD SVG 20010904//EN"
 "http://www.w3.org/TR/2001/REC-SVG-20010904/DTD/svg10.dtd">
<svg version="1.0" xmlns="http://www.w3.org/2000/svg"
 width="104.000000pt" height="104.000000pt" viewBox="0 0 104.000000 104.000000"
 preserveAspectRatio="xMidYMid meet">
<metadata>
Created by potrace 1.16, written by Peter Selinger 2001-2019
</metadata>
<g transform="translate(0.000000,104.000000) scale(0.100000,-0.100000)"
fill="#000000" stroke="none">
<path d="M140 897 c0 -3 20 -77 45 -163 25 -87 44 -163 41 -169 -2 -6 -34 -17
-71 -25 -60 -12 -84 -24 -73 -35 2 -2 37 5 78 15 41 11 76 20 77 20 1 0 8 -19
15 -41 12 -41 11 -42 -23 -70 -19 -16 -57 -46 -86 -66 -29 -21 -52 -41 -53
-45 -1 -20 29 -3 97 52 40 33 76 60 81 60 5 0 23 -34 42 -76 63 -144 144 -225
208 -209 41 10 135 115 178 199 22 42 42 76 47 76 4 0 49 -25 99 -55 50 -30
95 -55 100 -55 23 0 0 20 -80 67 -48 29 -93 57 -100 61 -10 7 -8 18 8 55 l20
46 80 7 c44 3 83 11 87 17 4 6 -21 7 -75 3 l-80 -7 65 146 c36 81 62 150 57
154 -5 5 -142 13 -304 20 -162 6 -337 14 -387 18 -51 3 -93 3 -93 0z m442 -38
c193 -8 318 -16 318 -22 0 -6 -28 -70 -62 -144 -60 -131 -62 -133 -95 -134
-49 -2 -53 -3 -50 -14 1 -5 17 -9 35 -8 17 1 32 -2 32 -7 0 -8 -19 -58 -27
-69 -1 -2 -22 8 -47 23 -24 14 -51 26 -58 26 -16 -1 42 -50 58 -50 6 0 17 -7
24 -15 10 -11 4 -29 -32 -91 -81 -142 -147 -204 -202 -190 -33 8 -113 117
-153 208 -35 81 -32 93 28 118 16 7 29 16 29 21 0 14 -16 11 -55 -12 -39 -23
-49 -20 -59 24 -5 22 -3 27 13 27 11 0 23 5 26 10 4 6 -7 10 -24 10 -17 0 -31
2 -31 5 0 3 -18 70 -40 150 -22 80 -40 148 -40 151 0 3 21 3 48 0 26 -3 190
-11 364 -17z"/>
<path d="M550 694 c-8 -1 -45 -6 -82 -9 -52 -5 -68 -10 -68 -22 0 -22 48 -151
65 -176 11 -15 15 -49 15 -117 0 -120 4 -126 59 -104 23 9 46 25 51 35 13 24
13 112 0 104 -5 -3 -10 -23 -10 -44 0 -45 -17 -70 -49 -73 -25 -3 -25 -2 -29
95 l-4 98 39 57 c42 60 93 147 93 156 0 6 -53 6 -80 0z m40 -25 c0 -15 -55
-104 -86 -142 -21 -25 -24 -26 -33 -10 -15 30 -51 136 -47 141 3 2 38 7 78 12
40 4 76 8 81 9 4 0 7 -4 7 -10z"/>
</g>
</svg>
