<?xml version="1.0" standalone="no"?>
<!DOCTYPE svg PUBLIC "-//W3C//DTD SVG 20010904//EN"
 "http://www.w3.org/TR/2001/REC-SVG-20010904/DTD/svg10.dtd">
<svg version="1.0" xmlns="http://www.w3.org/2000/svg"
 width="104.000000pt" height="104.000000pt" viewBox="0 0 104.000000 104.000000"
 preserveAspectRatio="xMidYMid meet">
<metadata>
Created by potrace 1.16, written by Peter Selinger 2001-2019
</metadata>
<g transform="translate(0.000000,104.000000) scale(0.100000,-0.100000)"
fill="#000000" stroke="none">
<path d="M309 857 c-47 -69 -59 -106 -59 -188 0 -38 -3 -69 -7 -69 -5 0 -17 7
-27 15 -11 8 -35 15 -53 15 -27 0 -37 -6 -53 -32 -11 -18 -20 -46 -20 -63 0
-53 28 -163 63 -250 l34 -86 -28 -20 c-22 -15 -29 -28 -29 -54 0 -71 43 -79
222 -40 l87 19 72 -23 c133 -43 246 -41 276 5 15 24 15 27 -6 54 l-21 30 25
60 c33 78 65 212 65 271 0 31 -6 55 -19 70 -17 21 -22 22 -57 11 -21 -6 -39
-10 -41 -8 -2 2 1 23 6 47 14 58 14 161 0 196 -13 34 -69 94 -81 87 -5 -3 3
-18 18 -32 55 -55 66 -124 39 -249 -8 -37 -32 -147 -54 -242 -22 -96 -38 -178
-35 -182 2 -4 16 -10 31 -14 16 -3 47 -18 71 -31 46 -27 55 -56 23 -74 -32
-17 -131 -11 -210 12 l-73 22 6 50 c12 99 19 543 9 549 -6 4 -12 -84 -17 -251
-3 -141 -9 -276 -12 -299 -6 -38 -10 -43 -33 -43 -14 0 -60 -9 -101 -20 -121
-32 -170 -26 -170 20 0 41 32 63 100 68 l60 4 0 33 c0 18 -9 99 -20 180 -36
266 -26 369 43 451 26 31 35 54 20 54 -5 0 -24 -24 -44 -53z m-88 -272 c23
-18 27 -35 47 -175 30 -211 31 -200 -21 -200 l-43 0 -32 88 c-66 182 -76 259
-38 297 27 27 44 25 87 -10z m606 -53 c3 -15 1 -56 -5 -93 -12 -71 -64 -235
-79 -250 -12 -12 -93 20 -93 38 0 16 57 273 65 295 8 19 74 48 92 41 7 -3 16
-17 20 -31z"/>
</g>
</svg>
