<?xml version="1.0" standalone="no"?>
<!DOCTYPE svg PUBLIC "-//W3C//DTD SVG 20010904//EN"
 "http://www.w3.org/TR/2001/REC-SVG-20010904/DTD/svg10.dtd">
<svg version="1.0" xmlns="http://www.w3.org/2000/svg"
 width="104.000000pt" height="104.000000pt" viewBox="0 0 104.000000 104.000000"
 preserveAspectRatio="xMidYMid meet">
<metadata>
Created by potrace 1.16, written by Peter Selinger 2001-2019
</metadata>
<g transform="translate(0.000000,104.000000) scale(0.100000,-0.100000)"
fill="#000000" stroke="none">
<path d="M144 708 c21 -75 46 -194 56 -268 14 -107 35 -136 25 -35 -6 63 -35
218 -51 270 -17 54 128 -117 167 -198 13 -26 27 -47 31 -47 33 0 -47 131 -138
225 -74 77 -101 93 -90 53z"/>
<path d="M798 623 c-41 -43 -87 -96 -101 -118 -35 -54 -60 -115 -47 -115 6 0
15 11 20 25 22 58 162 236 176 223 3 -3 -2 -32 -10 -64 -29 -118 -45 -264 -28
-264 5 0 14 48 21 108 7 59 24 144 37 190 13 45 24 84 24 87 0 16 -25 -4 -92
-72z"/>
</g>
</svg>
