<?xml version="1.0" standalone="no"?>
<!DOCTYPE svg PUBLIC "-//W3C//DTD SVG 20010904//EN"
 "http://www.w3.org/TR/2001/REC-SVG-20010904/DTD/svg10.dtd">
<svg version="1.0" xmlns="http://www.w3.org/2000/svg"
 width="104.000000pt" height="104.000000pt" viewBox="0 0 104.000000 104.000000"
 preserveAspectRatio="xMidYMid meet">
<metadata>
Created by potrace 1.16, written by Peter Selinger 2001-2019
</metadata>
<g transform="translate(0.000000,104.000000) scale(0.100000,-0.100000)"
fill="#000000" stroke="none">
<path d="M630 744 c-19 -3 -97 -13 -173 -24 -76 -11 -181 -20 -233 -20 l-95 0
7 -37 c3 -21 15 -73 25 -117 10 -43 19 -83 19 -89 0 -9 -96 -2 -127 10 -7 3
-13 1 -13 -5 0 -14 27 -22 95 -29 l60 -5 27 -57 28 -56 -38 -32 c-20 -18 -52
-40 -69 -50 -18 -10 -33 -21 -33 -25 0 -17 25 -6 74 30 28 21 57 42 64 46 8 5
30 -8 63 -39 70 -66 127 -88 219 -88 118 0 196 44 266 151 20 31 38 58 39 59
1 2 45 -15 98 -36 54 -21 100 -35 102 -30 7 10 -10 19 -105 54 -41 15 -78 30
-81 34 -4 3 1 25 11 47 16 38 23 43 62 49 61 9 79 15 73 24 -2 5 -28 4 -56 -1
-28 -5 -53 -8 -55 -6 -2 2 1 20 6 39 5 19 11 67 12 108 l3 74 -30 8 c-37 11
-197 19 -245 13z m241 -34 c19 -11 20 -17 14 -68 -4 -32 -11 -78 -16 -103 -10
-44 -13 -47 -55 -59 -55 -16 -58 -32 -3 -24 l41 7 -16 -32 c-10 -19 -24 -31
-36 -31 -24 0 -27 -15 -5 -24 14 -5 14 -9 -1 -33 -29 -47 -97 -114 -139 -136
-33 -18 -57 -22 -130 -22 -102 0 -144 16 -209 81 -33 33 -35 38 -21 54 21 23
19 33 -4 20 -11 -5 -22 -10 -25 -10 -6 0 -46 75 -46 87 0 5 20 7 45 5 28 -3
45 0 45 7 0 6 -17 12 -37 13 -21 0 -44 2 -52 2 -16 1 -34 57 -55 164 l-14 72
85 0 c70 0 283 24 393 44 43 8 219 -3 241 -14z"/>
<path d="M495 464 c-55 -28 -60 -38 -35 -72 33 -45 73 -59 105 -38 25 16 65
72 65 89 0 10 -63 37 -87 37 -10 0 -31 -7 -48 -16z m83 -10 c29 -8 28 -23 -6
-63 -32 -39 -59 -37 -87 5 -19 30 -14 41 28 53 41 12 38 12 65 5z"/>
<path d="M705 431 c-8 -51 -53 -114 -94 -131 -35 -14 -43 -35 -8 -24 32 10 72
40 90 67 25 38 42 106 30 118 -8 8 -13 -1 -18 -30z"/>
</g>
</svg>
