<?xml version="1.0" standalone="no"?>
<!DOCTYPE svg PUBLIC "-//W3C//DTD SVG 20010904//EN"
 "http://www.w3.org/TR/2001/REC-SVG-20010904/DTD/svg10.dtd">
<svg version="1.0" xmlns="http://www.w3.org/2000/svg"
 width="104.000000pt" height="104.000000pt" viewBox="0 0 104.000000 104.000000"
 preserveAspectRatio="xMidYMid meet">
<metadata>
Created by potrace 1.16, written by Peter Selinger 2001-2019
</metadata>
<g transform="translate(0.000000,104.000000) scale(0.100000,-0.100000)"
fill="#000000" stroke="none">
<path d="M645 756 c-50 -23 -94 -61 -123 -104 l-15 -23 -44 45 c-58 59 -112
79 -202 74 -59 -3 -77 -9 -113 -35 -127 -91 -145 -270 -38 -367 108 -97 251
-97 349 2 l47 47 29 -39 c69 -91 226 -133 326 -89 107 48 164 134 164 248 0
48 -6 82 -19 108 -64 131 -234 193 -361 133z m200 -13 c64 -21 128 -87 150
-154 42 -127 -25 -260 -154 -304 -142 -48 -287 24 -327 164 -21 70 -13 131 26
190 65 101 189 144 305 104z m-458 -34 c24 -12 56 -37 70 -56 25 -32 27 -42
28 -141 l1 -107 -42 -42 c-73 -73 -174 -89 -264 -43 -130 67 -162 253 -58 346
71 65 182 83 265 43z"/>
<path d="M670 517 c-31 -16 -39 -56 -14 -74 41 -30 114 -5 114 39 0 33 -61 54
-100 35z"/>
<path d="M269 479 c-24 -24 -22 -36 13 -62 29 -22 65 -18 92 9 21 20 20 30 -4
54 -26 26 -74 26 -101 -1z"/>
</g>
</svg>
