<?xml version="1.0" standalone="no"?>
<!DOCTYPE svg PUBLIC "-//W3C//DTD SVG 20010904//EN"
 "http://www.w3.org/TR/2001/REC-SVG-20010904/DTD/svg10.dtd">
<svg version="1.0" xmlns="http://www.w3.org/2000/svg"
 width="104.000000pt" height="104.000000pt" viewBox="0 0 104.000000 104.000000"
 preserveAspectRatio="xMidYMid meet">
<metadata>
Created by potrace 1.16, written by Peter Selinger 2001-2019
</metadata>
<g transform="translate(0.000000,104.000000) scale(0.100000,-0.100000)"
fill="#000000" stroke="none">
<path d="M396 840 c-75 -24 -149 -102 -176 -185 -7 -22 -26 -59 -43 -82 -26
-37 -32 -41 -54 -32 -30 11 -33 11 -33 -1 0 -5 10 -12 23 -15 21 -6 22 -11 22
-100 -1 -87 -3 -95 -25 -114 -26 -22 -12 -29 18 -10 16 10 26 5 66 -34 79 -77
218 -113 372 -96 115 13 239 69 288 131 l25 32 49 -23 c28 -13 56 -21 63 -19
8 3 -12 17 -44 31 l-57 26 6 43 c9 69 7 67 70 61 42 -5 55 -3 50 5 -4 7 -18
12 -30 12 -64 0 -84 11 -101 56 -10 26 -32 56 -56 74 -25 21 -42 44 -49 69
-17 64 -54 105 -135 148 -41 22 -66 27 -135 29 -47 2 -98 -1 -114 -6z m246
-43 c59 -34 104 -86 119 -138 8 -24 26 -52 46 -68 18 -15 42 -45 53 -66 22
-43 16 -55 -32 -55 -15 0 -30 -5 -34 -11 -4 -8 8 -10 40 -8 l46 4 0 -35 c0
-55 -10 -63 -53 -45 -41 17 -67 19 -67 6 0 -4 20 -14 45 -21 25 -7 45 -18 45
-25 0 -20 -68 -75 -124 -101 -77 -36 -149 -47 -268 -42 -99 4 -114 7 -175 39
-70 36 -115 81 -97 99 6 6 38 16 72 22 34 6 62 16 62 21 0 12 -91 1 -126 -15
-33 -15 -44 0 -44 67 0 84 8 86 99 37 46 -25 82 -38 86 -33 3 6 -33 30 -81 54
l-86 43 26 32 c15 17 34 53 43 79 18 55 57 113 97 144 48 38 95 50 182 46 66
-3 89 -8 126 -30z"/>
<path d="M458 503 c-37 -4 -51 -24 -28 -38 6 -4 24 -33 40 -65 34 -67 41 -140
15 -140 -31 0 -77 32 -87 61 -12 35 -27 30 -20 -6 16 -86 184 -99 267 -21 19
19 35 41 35 50 0 25 -17 19 -32 -11 -14 -30 -59 -60 -98 -65 -23 -3 -25 0 -25
42 0 33 10 65 37 118 21 40 38 75 38 77 0 5 -84 4 -142 -2z m81 -75 l-31 -61
-18 40 c-10 22 -23 44 -29 47 -30 19 -3 32 72 35 l37 1 -31 -62z"/>
</g>
</svg>
