<?xml version="1.0" standalone="no"?>
<!DOCTYPE svg PUBLIC "-//W3C//DTD SVG 20010904//EN"
 "http://www.w3.org/TR/2001/REC-SVG-20010904/DTD/svg10.dtd">
<svg version="1.0" xmlns="http://www.w3.org/2000/svg"
 width="104.000000pt" height="104.000000pt" viewBox="0 0 104.000000 104.000000"
 preserveAspectRatio="xMidYMid meet">
<metadata>
Created by potrace 1.16, written by Peter Selinger 2001-2019
</metadata>
<g transform="translate(0.000000,104.000000) scale(0.100000,-0.100000)"
fill="#000000" stroke="none">
<path d="M238 796 c-104 -28 -158 -95 -158 -197 0 -51 -2 -55 -38 -78 -20 -13
-31 -26 -25 -28 7 -3 25 5 40 17 l27 21 25 -50 c24 -49 25 -51 8 -87 -23 -47
-34 -124 -18 -124 6 0 11 12 11 28 0 15 10 47 21 72 l20 44 24 -29 c14 -17 23
-37 21 -45 -3 -8 -9 -30 -14 -47 -6 -18 -7 -35 -2 -38 5 -3 14 11 20 30 16 48
25 51 63 19 17 -15 63 -42 102 -61 59 -28 80 -33 142 -33 78 0 157 23 226 67
44 27 57 23 57 -18 0 -16 5 -29 11 -29 8 0 10 15 5 48 -5 43 -4 49 23 75 37
34 45 34 72 -3 12 -16 26 -27 31 -24 5 3 -4 22 -20 41 l-29 36 31 53 c34 58
41 62 68 37 10 -9 21 -13 26 -9 4 4 -6 19 -22 32 -23 20 -27 31 -23 53 22 108
-95 198 -298 231 -86 14 -370 11 -427 -4z m424 -17 c182 -28 278 -95 278 -192
l0 -35 -44 5 c-49 6 -96 -2 -96 -16 0 -5 26 -7 59 -4 38 4 61 2 65 -6 4 -6 -6
-33 -22 -59 -26 -41 -33 -47 -61 -44 -17 1 -31 -2 -31 -8 0 -5 7 -10 15 -10
24 0 17 -25 -14 -47 l-28 -21 -23 21 c-24 23 -24 22 -3 -30 6 -16 -75 -67
-139 -89 -79 -26 -179 -17 -259 24 -35 18 -76 44 -91 57 -28 24 -36 45 -18 45
6 0 10 5 10 10 0 14 -27 12 -34 -2 -3 -9 -14 -3 -30 17 -30 35 -31 42 -9 67 9
10 13 21 9 25 -4 4 -16 -3 -26 -16 l-18 -25 -22 44 c-21 42 -21 44 -4 57 10 7
35 13 56 13 22 0 38 5 38 11 0 8 -18 10 -60 6 l-60 -7 0 41 c0 82 44 134 136
163 60 18 321 21 426 5z"/>
<path d="M443 536 c-17 -8 -39 -26 -49 -41 -17 -26 -16 -27 17 -61 19 -20 44
-40 57 -45 17 -6 22 -16 20 -32 -7 -49 -119 -26 -178 38 -19 20 -25 37 -24 68
0 23 2 47 5 52 2 6 0 11 -6 13 -14 5 -29 -60 -21 -91 9 -38 55 -88 101 -108
44 -20 110 -25 120 -9 4 7 14 5 28 -5 48 -34 135 -1 180 67 27 42 36 101 17
113 -6 4 -10 -7 -10 -25 0 -18 -7 -46 -15 -64 -16 -34 -87 -86 -118 -86 -56 0
-78 53 -29 71 72 27 98 102 47 135 -35 23 -103 27 -142 10z m129 -27 c41 -22
4 -90 -58 -105 -30 -8 -75 15 -93 48 -14 24 -14 28 3 47 10 11 28 22 40 24 27
6 85 -2 108 -14z"/>
</g>
</svg>
