<?xml version="1.0" standalone="no"?>
<!DOCTYPE svg PUBLIC "-//W3C//DTD SVG 20010904//EN"
 "http://www.w3.org/TR/2001/REC-SVG-20010904/DTD/svg10.dtd">
<svg version="1.0" xmlns="http://www.w3.org/2000/svg"
 width="104.000000pt" height="104.000000pt" viewBox="0 0 104.000000 104.000000"
 preserveAspectRatio="xMidYMid meet">
<metadata>
Created by potrace 1.16, written by Peter Selinger 2001-2019
</metadata>
<g transform="translate(0.000000,104.000000) scale(0.100000,-0.100000)"
fill="#000000" stroke="none">
<path d="M409 826 c-67 -27 -108 -55 -145 -99 -37 -43 -82 -141 -90 -194 -3
-24 -9 -43 -13 -43 -3 0 -31 7 -61 15 -65 17 -70 18 -70 6 0 -5 32 -17 70 -26
54 -13 70 -21 70 -35 0 -10 3 -31 6 -48 6 -28 4 -31 -17 -30 -48 3 -79 -2 -79
-13 0 -7 18 -10 51 -7 l50 5 33 -51 c67 -103 154 -165 266 -186 146 -28 297
44 372 178 28 48 34 53 62 51 17 -2 33 1 36 6 3 6 -9 11 -27 13 -30 3 -32 5
-26 35 8 42 10 44 67 54 27 5 51 14 54 22 3 9 -2 11 -14 8 -11 -3 -35 -9 -55
-12 l-36 -7 -12 69 c-41 232 -284 375 -492 289z m274 -26 c100 -47 173 -146
198 -269 15 -72 12 -76 -61 -87 -52 -8 -62 -12 -55 -24 3 -4 30 -2 60 5 58 13
61 12 49 -32 -6 -21 -12 -23 -70 -23 -36 0 -64 -4 -64 -10 0 -6 27 -10 61 -10
l60 0 -23 -41 c-71 -127 -242 -201 -380 -164 -88 23 -150 66 -206 144 -42 58
-41 65 8 57 22 -3 40 -2 40 3 0 10 -34 21 -67 21 -18 0 -25 9 -33 41 -6 23
-10 43 -7 45 2 2 18 0 35 -5 18 -5 34 -6 37 -1 7 11 -2 16 -44 25 l-34 7 6 50
c15 127 114 240 250 284 62 20 180 13 240 -16z"/>
<path d="M451 446 c-9 -11 -5 -24 19 -62 43 -68 35 -134 -16 -134 -13 0 -24
-4 -24 -10 0 -14 54 -12 68 2 9 9 15 10 20 2 15 -23 45 -32 74 -22 40 14 35
27 -10 21 -33 -4 -39 -2 -50 21 -11 24 -8 32 33 92 25 36 45 71 45 78 0 26
-139 37 -159 12z m129 -20 c0 -6 -12 -29 -27 -51 -24 -35 -27 -37 -37 -21 -6
10 -21 31 -33 46 -13 15 -23 31 -23 34 0 4 27 6 60 5 36 -1 60 -7 60 -13z"/>
</g>
</svg>
