<?xml version="1.0" standalone="no"?>
<!DOCTYPE svg PUBLIC "-//W3C//DTD SVG 20010904//EN"
 "http://www.w3.org/TR/2001/REC-SVG-20010904/DTD/svg10.dtd">
<svg version="1.0" xmlns="http://www.w3.org/2000/svg"
 width="104.000000pt" height="104.000000pt" viewBox="0 0 104.000000 104.000000"
 preserveAspectRatio="xMidYMid meet">
<metadata>
Created by potrace 1.16, written by Peter Selinger 2001-2019
</metadata>
<g transform="translate(0.000000,104.000000) scale(0.100000,-0.100000)"
fill="#000000" stroke="none">
<path d="M780 821 c0 -5 18 -42 41 -81 129 -229 144 -375 47 -485 -32 -37
-103 -75 -138 -75 -4 0 -12 31 -19 70 -14 74 -38 114 -28 44 4 -22 9 -73 13
-115 6 -69 5 -78 -15 -98 -21 -21 -83 -29 -108 -13 -20 13 -33 61 -33 123 0
32 -4 59 -9 59 -4 0 -14 -28 -20 -61 -15 -76 -27 -102 -53 -118 -25 -15 -70
-6 -93 19 -18 20 -18 36 1 199 5 36 3 52 -3 48 -6 -4 -14 -32 -18 -63 -12 -97
-17 -100 -86 -54 -139 92 -126 307 33 537 16 24 28 49 26 55 -3 7 -23 -16 -47
-50 -121 -179 -160 -366 -101 -482 23 -45 54 -72 115 -97 42 -17 45 -21 45
-55 0 -43 31 -74 85 -84 41 -7 69 7 87 46 15 34 28 39 28 10 0 -53 85 -79 149
-45 32 16 41 33 41 75 0 24 5 29 45 40 25 7 64 26 85 41 140 102 137 277 -9
536 -42 75 -61 98 -61 74z"/>
<path d="M380 129 c0 -5 5 -7 10 -4 6 3 10 8 10 11 0 2 -4 4 -10 4 -5 0 -10
-5 -10 -11z"/>
<path d="M660 110 c0 -5 5 -10 10 -10 6 0 10 5 10 10 0 6 -4 10 -10 10 -5 0
-10 -4 -10 -10z"/>
<path d="M430 89 c0 -5 5 -7 10 -4 6 3 10 8 10 11 0 2 -4 4 -10 4 -5 0 -10 -5
-10 -11z"/>
<path d="M600 90 c0 -5 7 -10 15 -10 8 0 15 5 15 10 0 6 -7 10 -15 10 -8 0
-15 -4 -15 -10z"/>
</g>
</svg>
