<?xml version="1.0" standalone="no"?>
<!DOCTYPE svg PUBLIC "-//W3C//DTD SVG 20010904//EN"
 "http://www.w3.org/TR/2001/REC-SVG-20010904/DTD/svg10.dtd">
<svg version="1.0" xmlns="http://www.w3.org/2000/svg"
 width="104.000000pt" height="104.000000pt" viewBox="0 0 104.000000 104.000000"
 preserveAspectRatio="xMidYMid meet">
<metadata>
Created by potrace 1.16, written by Peter Selinger 2001-2019
</metadata>
<g transform="translate(0.000000,104.000000) scale(0.100000,-0.100000)"
fill="#000000" stroke="none">
<path d="M266 815 c-54 -19 -90 -57 -122 -128 -37 -82 -46 -244 -19 -328 38
-118 109 -189 190 -189 51 0 98 31 136 91 36 55 44 59 53 26 15 -55 99 -117
159 -117 50 0 88 21 126 69 111 140 100 427 -19 535 -90 81 -191 61 -256 -50
l-26 -44 -28 42 c-35 55 -66 82 -109 97 -41 13 -37 13 -85 -4z m87 -19 c41
-17 69 -48 106 -116 l30 -54 19 45 c28 65 77 117 122 130 34 10 44 9 87 -12
86 -43 123 -130 123 -289 0 -112 -17 -179 -60 -238 -79 -109 -195 -93 -257 37
-15 33 -31 60 -34 60 -4 1 -19 -24 -34 -55 -50 -102 -136 -140 -212 -93 -156
97 -149 482 11 580 37 23 56 24 99 5z"/>
<path d="M330 520 c-44 -44 -12 -113 52 -113 35 0 68 32 68 67 0 56 -79 87
-120 46z"/>
<path d="M572 520 c-44 -42 -14 -113 48 -113 62 0 92 69 47 111 -29 28 -67 28
-95 2z"/>
</g>
</svg>
