<?xml version="1.0" standalone="no"?>
<!DOCTYPE svg PUBLIC "-//W3C//DTD SVG 20010904//EN"
 "http://www.w3.org/TR/2001/REC-SVG-20010904/DTD/svg10.dtd">
<svg version="1.0" xmlns="http://www.w3.org/2000/svg"
 width="104.000000pt" height="104.000000pt" viewBox="0 0 104.000000 104.000000"
 preserveAspectRatio="xMidYMid meet">
<metadata>
Created by potrace 1.16, written by Peter Selinger 2001-2019
</metadata>
<g transform="translate(0.000000,104.000000) scale(0.100000,-0.100000)"
fill="#000000" stroke="none">
<path d="M302 841 c-29 -10 -69 -33 -88 -52 -33 -32 -74 -120 -74 -160 0 -18
-4 -19 -52 -13 -61 8 -60 -10 2 -20 22 -3 40 -12 41 -19 0 -6 2 -41 5 -75 l4
-64 -50 -21 c-28 -11 -50 -25 -50 -29 0 -12 18 -10 51 8 37 19 59 12 59 -18 1
-36 35 -103 72 -138 70 -67 176 -102 311 -101 207 1 331 88 368 259 9 44 12
49 33 45 13 -3 27 0 30 6 5 7 -2 11 -18 11 -33 0 -36 7 -29 72 l5 55 52 22
c28 13 46 25 39 27 -6 3 -28 -2 -48 -10 -21 -9 -41 -16 -45 -16 -3 0 -12 23
-18 50 -14 62 -48 114 -96 146 -74 51 -395 73 -504 35z m370 -15 c96 -19 118
-28 154 -65 33 -34 71 -129 61 -154 -6 -16 -86 -37 -142 -37 -19 0 -35 -4 -35
-10 0 -15 79 -12 133 4 44 13 47 13 53 -6 3 -11 3 -35 -1 -55 -5 -26 -10 -33
-21 -29 -32 12 -124 19 -124 9 0 -6 26 -13 58 -17 84 -10 87 -13 68 -77 -32
-112 -100 -184 -202 -215 -74 -22 -230 -18 -309 8 -105 34 -181 113 -198 206
-7 32 -5 34 48 57 69 31 73 52 5 25 -28 -11 -53 -20 -55 -20 -3 0 -5 27 -5 60
0 33 3 60 6 60 3 0 39 -12 79 -26 40 -14 83 -24 96 -22 16 3 19 6 9 10 -8 2
-55 18 -104 34 l-88 29 6 42 c12 89 60 151 142 183 61 24 256 27 366 6z"/>
<path d="M451 466 l-22 -23 33 -35 c18 -19 39 -37 46 -39 9 -3 11 -22 6 -78
l-7 -73 -39 6 c-84 14 -182 92 -195 156 -6 30 -23 42 -23 16 0 -61 91 -157
173 -181 64 -19 149 -19 213 0 87 26 174 121 174 190 0 35 -16 24 -24 -17 -16
-81 -107 -153 -207 -165 l-52 -6 7 74 c4 41 12 76 18 78 14 5 57 50 69 74 8
15 4 20 -25 32 -56 23 -118 20 -145 -9z m132 -8 c16 -12 15 -15 -8 -40 -31
-34 -61 -35 -92 -6 -25 24 -30 44 -10 51 24 10 94 7 110 -5z"/>
</g>
</svg>
