<?xml version="1.0" standalone="no"?>
<!DOCTYPE svg PUBLIC "-//W3C//DTD SVG 20010904//EN"
 "http://www.w3.org/TR/2001/REC-SVG-20010904/DTD/svg10.dtd">
<svg version="1.0" xmlns="http://www.w3.org/2000/svg"
 width="104.000000pt" height="104.000000pt" viewBox="0 0 104.000000 104.000000"
 preserveAspectRatio="xMidYMid meet">
<metadata>
Created by potrace 1.16, written by Peter Selinger 2001-2019
</metadata>
<g transform="translate(0.000000,104.000000) scale(0.100000,-0.100000)"
fill="#000000" stroke="none">
<path d="M231 700 c-17 -30 -43 -86 -57 -125 -14 -38 -43 -108 -65 -153 -38
-83 -49 -116 -30 -96 6 5 50 7 102 4 64 -4 93 -2 96 7 2 6 5 88 6 182 2 159 7
197 20 154 3 -10 19 -57 36 -104 17 -48 36 -119 42 -158 7 -39 16 -71 20 -71
36 0 -56 315 -110 380 l-28 34 -32 -54z m34 -194 c-3 -76 -8 -142 -11 -147 -6
-10 -154 -13 -154 -4 0 3 7 16 14 28 8 12 34 69 56 127 23 58 51 125 63 148
l21 44 9 -29 c4 -15 6 -90 2 -167z"/>
<path d="M700 703 c-36 -56 -97 -238 -102 -303 -5 -65 16 -61 24 5 9 65 40
174 69 239 11 25 21 46 22 46 1 0 3 -79 4 -176 2 -96 4 -178 7 -182 2 -4 45
-5 96 -2 51 3 94 2 97 -3 2 -4 8 -5 13 -2 5 3 0 21 -12 41 -11 19 -41 88 -67
152 -43 109 -105 232 -116 232 -3 0 -19 -21 -35 -47z m66 -34 c9 -18 38 -89
66 -158 27 -69 54 -130 59 -136 20 -20 6 -25 -70 -25 l-78 0 -7 128 c-5 110
-1 222 10 222 2 0 11 -14 20 -31z"/>
</g>
</svg>
