<?xml version="1.0" standalone="no"?>
<!DOCTYPE svg PUBLIC "-//W3C//DTD SVG 20010904//EN"
 "http://www.w3.org/TR/2001/REC-SVG-20010904/DTD/svg10.dtd">
<svg version="1.0" xmlns="http://www.w3.org/2000/svg"
 width="104.000000pt" height="104.000000pt" viewBox="0 0 104.000000 104.000000"
 preserveAspectRatio="xMidYMid meet">
<metadata>
Created by potrace 1.16, written by Peter Selinger 2001-2019
</metadata>
<g transform="translate(0.000000,104.000000) scale(0.100000,-0.100000)"
fill="#000000" stroke="none">
<path d="M180 921 c-84 -27 -120 -69 -123 -141 -2 -61 16 -74 91 -66 50 5 71
3 107 -13 81 -36 107 -98 160 -381 20 -103 54 -182 89 -205 29 -19 85 -34 104
-28 25 9 11 23 -24 23 -87 0 -126 73 -168 312 -6 34 -5 37 23 43 16 3 42 19
57 35 16 16 32 30 35 30 4 0 10 -20 13 -45 11 -69 53 -184 82 -222 34 -45 76
-83 91 -83 23 0 14 14 -27 43 -60 43 -101 138 -140 327 -17 85 -41 178 -54
205 -31 68 -82 124 -133 147 -48 21 -145 31 -183 19z m78 -50 c14 -47 15 -56
2 -101 l-10 -35 -82 0 -83 0 -3 48 c-3 41 1 51 27 77 16 17 34 30 40 30 19 0
36 -79 24 -111 -12 -31 -3 -38 17 -14 12 14 10 67 -5 112 -6 18 -3 22 22 26
15 2 31 5 34 6 3 0 11 -16 17 -38z m99 8 c73 -35 131 -124 154 -237 11 -54 11
-66 -4 -96 -16 -34 -67 -71 -89 -64 -9 3 -37 71 -38 90 0 4 18 17 39 29 37 21
61 54 61 84 0 27 -16 16 -25 -17 -6 -20 -23 -40 -44 -52 -34 -20 -35 -20 -45
0 -6 10 -30 39 -53 62 -42 44 -42 44 -31 87 9 31 9 56 1 89 -10 43 -9 46 10
46 11 0 40 -9 64 -21z"/>
</g>
</svg>
