<?xml version="1.0" standalone="no"?>
<!DOCTYPE svg PUBLIC "-//W3C//DTD SVG 20010904//EN"
 "http://www.w3.org/TR/2001/REC-SVG-20010904/DTD/svg10.dtd">
<svg version="1.0" xmlns="http://www.w3.org/2000/svg"
 width="104.000000pt" height="104.000000pt" viewBox="0 0 104.000000 104.000000"
 preserveAspectRatio="xMidYMid meet">
<metadata>
Created by potrace 1.16, written by Peter Selinger 2001-2019
</metadata>
<g transform="translate(0.000000,104.000000) scale(0.100000,-0.100000)"
fill="#000000" stroke="none">
<path d="M80 590 c0 -34 27 -88 52 -103 12 -8 39 -18 60 -21 33 -6 40 -3 72
31 32 34 40 38 87 38 47 0 54 -3 85 -39 24 -28 34 -34 34 -22 0 24 -51 73 -84
82 -42 10 -97 -5 -128 -37 -16 -16 -31 -29 -33 -29 -10 0 -25 62 -20 86 6 28
6 28 -10 9 -15 -19 -15 -47 0 -87 5 -13 2 -15 -17 -11 -37 9 -68 44 -74 85 -7
40 -24 53 -24 18z"/>
<path d="M946 572 c-6 -42 -26 -65 -69 -81 -30 -12 -32 -8 -16 37 11 33 -3 78
-22 66 -6 -4 -6 -11 2 -20 11 -14 7 -47 -11 -74 -8 -13 -12 -11 -26 9 -19 27
-71 51 -111 51 -38 0 -89 -33 -108 -70 -20 -38 -2 -40 21 -1 21 35 52 51 101
51 29 0 43 -8 73 -39 28 -30 43 -38 65 -36 42 5 83 25 98 49 19 29 30 83 19
90 -5 3 -12 -12 -16 -32z"/>
</g>
</svg>
