<?xml version="1.0" standalone="no"?>
<!DOCTYPE svg PUBLIC "-//W3C//DTD SVG 20010904//EN"
 "http://www.w3.org/TR/2001/REC-SVG-20010904/DTD/svg10.dtd">
<svg version="1.0" xmlns="http://www.w3.org/2000/svg"
 width="104.000000pt" height="104.000000pt" viewBox="0 0 104.000000 104.000000"
 preserveAspectRatio="xMidYMid meet">
<metadata>
Created by potrace 1.16, written by Peter Selinger 2001-2019
</metadata>
<g transform="translate(0.000000,104.000000) scale(0.100000,-0.100000)"
fill="#000000" stroke="none">
<path d="M595 781 c-56 -16 -83 -29 -119 -62 -37 -32 -37 -32 -74 -16 -56 25
-104 30 -153 17 -150 -40 -198 -214 -87 -317 55 -52 152 -67 228 -37 39 16 40
16 72 -12 85 -71 199 -93 304 -57 68 23 146 102 163 166 44 155 -74 309 -247
322 -31 2 -70 0 -87 -4z m177 -39 c93 -42 142 -116 142 -212 0 -75 -14 -109
-70 -163 -96 -93 -273 -87 -373 14 l-32 31 -49 -21 c-87 -37 -168 -23 -223 39
-86 95 -42 236 83 270 51 14 140 0 160 -26 18 -21 31 -18 71 22 74 72 192 90
291 46z"/>
<path d="M666 531 c-25 -28 -5 -63 32 -59 30 3 42 39 22 64 -17 19 -34 18 -54
-5z"/>
<path d="M247 534 c-12 -12 -8 -51 8 -64 26 -22 50 -8 50 30 0 30 -4 35 -25
38 -14 2 -29 0 -33 -4z"/>
</g>
</svg>
