<?xml version="1.0" standalone="no"?>
<!DOCTYPE svg PUBLIC "-//W3C//DTD SVG 20010904//EN"
 "http://www.w3.org/TR/2001/REC-SVG-20010904/DTD/svg10.dtd">
<svg version="1.0" xmlns="http://www.w3.org/2000/svg"
 width="104.000000pt" height="104.000000pt" viewBox="0 0 104.000000 104.000000"
 preserveAspectRatio="xMidYMid meet">
<metadata>
Created by potrace 1.16, written by Peter Selinger 2001-2019
</metadata>
<g transform="translate(0.000000,104.000000) scale(0.100000,-0.100000)"
fill="#000000" stroke="none">
<path d="M290 845 c-6 -14 -10 -28 -10 -31 0 -2 -24 -66 -54 -142 -127 -324
-117 -468 40 -546 73 -36 155 -49 295 -44 132 4 194 22 248 71 50 47 75 155
60 264 -22 160 -93 388 -136 435 -33 36 -30 16 8 -59 24 -48 53 -131 74 -216
55 -218 47 -347 -28 -415 l-25 -23 -25 25 c-31 31 -38 32 -68 7 -17 -13 -33
-17 -57 -14 -34 6 -72 -17 -72 -44 0 -9 -16 -13 -59 -13 -56 0 -59 1 -64 29
-7 33 -30 45 -58 31 -15 -8 -24 -6 -41 10 -12 11 -31 20 -42 21 -81 4 -81 4
-98 39 -37 74 -17 220 56 408 74 189 85 222 75 227 -5 4 -14 -6 -19 -20z m21
-697 c5 -8 4 -15 -3 -17 -13 -4 -78 28 -78 40 0 11 72 -8 81 -23z m413 -1 c13
-20 10 -23 -31 -32 -38 -8 -44 7 -16 37 19 21 32 20 47 -5z m-324 -22 c0 -9
-9 -15 -25 -15 -24 0 -32 10 -18 23 12 13 43 7 43 -8z m214 9 c28 -11 17 -32
-19 -36 -36 -4 -45 8 -23 30 14 14 20 14 42 6z"/>
</g>
</svg>
