<?xml version="1.0" standalone="no"?>
<!DOCTYPE svg PUBLIC "-//W3C//DTD SVG 20010904//EN"
 "http://www.w3.org/TR/2001/REC-SVG-20010904/DTD/svg10.dtd">
<svg version="1.0" xmlns="http://www.w3.org/2000/svg"
 width="104.000000pt" height="104.000000pt" viewBox="0 0 104.000000 104.000000"
 preserveAspectRatio="xMidYMid meet">
<metadata>
Created by potrace 1.16, written by Peter Selinger 2001-2019
</metadata>
<g transform="translate(0.000000,104.000000) scale(0.100000,-0.100000)"
fill="#000000" stroke="none">
<path d="M118 713 c-21 -60 -17 -266 5 -326 22 -57 37 -52 57 19 13 44 9 201
-6 267 -8 35 6 35 48 -2 33 -29 54 -67 118 -208 18 -40 37 -73 41 -73 13 0 11
6 -15 63 -14 29 -36 79 -51 111 -32 74 -84 139 -125 156 -16 7 -30 16 -30 21
0 5 -6 9 -14 9 -8 0 -20 -17 -28 -37z m49 -226 c-4 -114 -19 -130 -37 -38 -13
71 -10 227 6 252 14 23 35 -120 31 -214z"/>
<path d="M890 741 c0 -5 -13 -14 -29 -20 -15 -7 -42 -27 -59 -44 -32 -33 -145
-262 -139 -281 5 -16 34 33 72 124 19 45 46 97 60 116 29 37 72 70 81 61 3 -3
1 -29 -5 -57 -24 -110 -6 -285 28 -285 27 0 44 75 45 195 1 122 -14 200 -39
200 -8 0 -15 -4 -15 -9z m37 -141 c6 -77 -12 -210 -27 -210 -22 0 -27 140 -8
251 14 88 28 72 35 -41z"/>
</g>
</svg>
