<?xml version="1.0" standalone="no"?>
<!DOCTYPE svg PUBLIC "-//W3C//DTD SVG 20010904//EN"
 "http://www.w3.org/TR/2001/REC-SVG-20010904/DTD/svg10.dtd">
<svg version="1.0" xmlns="http://www.w3.org/2000/svg"
 width="104.000000pt" height="104.000000pt" viewBox="0 0 104.000000 104.000000"
 preserveAspectRatio="xMidYMid meet">
<metadata>
Created by potrace 1.16, written by Peter Selinger 2001-2019
</metadata>
<g transform="translate(0.000000,104.000000) scale(0.100000,-0.100000)"
fill="#000000" stroke="none">
<path d="M620 920 c0 -6 8 -13 18 -17 35 -12 82 -68 98 -116 20 -59 23 -182
11 -408 l-9 -156 29 -12 c41 -17 82 -57 89 -88 18 -70 -107 -72 -331 -5 l-30
8 -1 195 c-1 108 -5 194 -10 194 -5 0 -11 -87 -14 -194 l-5 -194 -65 -19 c-91
-25 -214 -40 -245 -28 -32 12 -42 53 -21 85 10 14 40 40 67 57 l50 31 -5 61
c-15 172 -16 210 -7 315 13 143 32 201 78 241 39 35 38 52 -2 26 -67 -44 -99
-164 -99 -371 0 -77 3 -168 7 -201 l8 -61 -51 -33 c-53 -34 -80 -72 -80 -113
0 -68 118 -78 317 -28 72 19 74 19 135 -1 89 -28 203 -47 248 -41 47 7 80 35
80 70 0 25 -46 77 -100 113 l-23 16 13 199 c19 306 -7 416 -112 471 -32 17
-38 17 -38 4z"/>
</g>
</svg>
