<?xml version="1.0" standalone="no"?>
<!DOCTYPE svg PUBLIC "-//W3C//DTD SVG 20010904//EN"
 "http://www.w3.org/TR/2001/REC-SVG-20010904/DTD/svg10.dtd">
<svg version="1.0" xmlns="http://www.w3.org/2000/svg"
 width="104.000000pt" height="104.000000pt" viewBox="0 0 104.000000 104.000000"
 preserveAspectRatio="xMidYMid meet">
<metadata>
Created by potrace 1.16, written by Peter Selinger 2001-2019
</metadata>
<g transform="translate(0.000000,104.000000) scale(0.100000,-0.100000)"
fill="#000000" stroke="none">
<path d="M279 966 c-2 -2 -1 -64 3 -138 9 -196 49 -346 124 -469 33 -55 148
-179 165 -179 19 0 7 20 -27 47 -43 34 -117 130 -149 194 -50 98 -96 301 -94
419 l0 45 30 -80 c43 -116 110 -251 168 -336 77 -116 249 -278 281 -267 6 2
-10 19 -37 38 -168 120 -311 336 -409 619 -36 103 -44 118 -55 107z"/>
</g>
</svg>
