<?xml version="1.0" standalone="no"?>
<!DOCTYPE svg PUBLIC "-//W3C//DTD SVG 20010904//EN"
 "http://www.w3.org/TR/2001/REC-SVG-20010904/DTD/svg10.dtd">
<svg version="1.0" xmlns="http://www.w3.org/2000/svg"
 width="104.000000pt" height="104.000000pt" viewBox="0 0 104.000000 104.000000"
 preserveAspectRatio="xMidYMid meet">
<metadata>
Created by potrace 1.16, written by Peter Selinger 2001-2019
</metadata>
<g transform="translate(0.000000,104.000000) scale(0.100000,-0.100000)"
fill="#000000" stroke="none">
<path d="M676 707 c-74 -45 -127 -167 -111 -256 16 -87 89 -160 176 -176 79
-15 174 39 210 120 37 81 17 208 -44 273 -59 64 -161 81 -231 39z m175 -20
c116 -78 133 -259 33 -346 -44 -39 -100 -54 -154 -42 -79 18 -120 63 -141 157
-37 163 136 316 262 231z"/>
<path d="M710 655 c-23 -28 9 -72 45 -59 36 14 24 74 -15 74 -10 0 -23 -7 -30
-15z"/>
<path d="M225 705 c-117 -42 -173 -202 -106 -306 45 -72 150 -107 234 -80 45
15 102 78 118 129 44 149 -107 308 -246 257z m152 -40 c13 -9 33 -30 44 -48
74 -122 27 -252 -102 -279 -53 -11 -60 -10 -112 16 -44 21 -60 36 -76 70 -38
78 -18 173 48 229 30 25 43 31 96 40 26 4 71 -8 102 -28z"/>
<path d="M352 498 c-18 -18 -14 -46 7 -58 28 -15 39 -13 51 10 22 40 -26 80
-58 48z"/>
</g>
</svg>
