<?xml version="1.0" standalone="no"?>
<!DOCTYPE svg PUBLIC "-//W3C//DTD SVG 20010904//EN"
 "http://www.w3.org/TR/2001/REC-SVG-20010904/DTD/svg10.dtd">
<svg version="1.0" xmlns="http://www.w3.org/2000/svg"
 width="104.000000pt" height="104.000000pt" viewBox="0 0 104.000000 104.000000"
 preserveAspectRatio="xMidYMid meet">
<metadata>
Created by potrace 1.16, written by Peter Selinger 2001-2019
</metadata>
<g transform="translate(0.000000,104.000000) scale(0.100000,-0.100000)"
fill="#000000" stroke="none">
<path d="M701 915 c-52 -76 -321 -302 -321 -270 0 9 -5 15 -12 13 -14 -5 -53
-118 -73 -215 -17 -82 -21 -283 -5 -283 6 0 10 42 10 108 0 124 41 319 69 330
9 3 39 24 66 47 28 22 76 60 107 84 32 24 85 72 118 108 l60 64 0 -64 c0 -35
-5 -89 -11 -121 -6 -32 -8 -60 -6 -63 3 -2 19 3 36 11 16 9 32 16 36 16 19 0
-36 -234 -76 -321 -38 -82 -111 -156 -241 -244 -80 -53 -103 -75 -79 -75 5 0
44 26 87 57 173 125 233 190 273 297 20 55 75 305 68 312 -2 2 -20 -2 -39 -10
l-35 -15 5 134 c3 76 1 135 -4 135 -5 0 -20 -16 -33 -35z"/>
</g>
</svg>
