<?xml version="1.0" standalone="no"?>
<!DOCTYPE svg PUBLIC "-//W3C//DTD SVG 20010904//EN"
 "http://www.w3.org/TR/2001/REC-SVG-20010904/DTD/svg10.dtd">
<svg version="1.0" xmlns="http://www.w3.org/2000/svg"
 width="104.000000pt" height="104.000000pt" viewBox="0 0 104.000000 104.000000"
 preserveAspectRatio="xMidYMid meet">
<metadata>
Created by potrace 1.16, written by Peter Selinger 2001-2019
</metadata>
<g transform="translate(0.000000,104.000000) scale(0.100000,-0.100000)"
fill="#000000" stroke="none">
<path d="M460 765 c0 -3 10 -19 22 -35 17 -24 29 -30 58 -30 101 0 273 -73
338 -144 87 -95 92 -243 10 -333 l-20 -21 -34 20 c-26 15 -43 19 -72 13 -46
-8 -100 -48 -108 -80 -8 -31 -32 -38 -104 -30 -56 7 -60 9 -70 41 -23 68 -88
78 -185 29 l-48 -24 -46 24 c-106 53 -116 112 -56 324 37 132 40 151 26 151
-5 0 -16 -30 -25 -67 -9 -38 -27 -106 -41 -152 -14 -46 -25 -99 -25 -118 0
-45 32 -106 70 -133 107 -76 456 -120 605 -76 72 22 130 62 167 118 50 73 59
138 32 229 -33 114 -182 211 -374 244 -53 10 -80 20 -91 34 -17 20 -29 27 -29
16z m378 -569 c11 -11 5 -17 -37 -35 -28 -12 -71 -24 -97 -28 -43 -6 -46 -5
-36 13 34 64 128 92 170 50z m-398 -6 c11 -11 20 -28 20 -39 0 -17 -4 -18 -82
-5 -46 8 -84 14 -85 14 -2 0 -3 4 -3 9 0 9 84 39 113 40 9 1 26 -8 37 -19z"/>
</g>
</svg>
