<?xml version="1.0" standalone="no"?>
<!DOCTYPE svg PUBLIC "-//W3C//DTD SVG 20010904//EN"
 "http://www.w3.org/TR/2001/REC-SVG-20010904/DTD/svg10.dtd">
<svg version="1.0" xmlns="http://www.w3.org/2000/svg"
 width="104.000000pt" height="104.000000pt" viewBox="0 0 104.000000 104.000000"
 preserveAspectRatio="xMidYMid meet">
<metadata>
Created by potrace 1.16, written by Peter Selinger 2001-2019
</metadata>
<g transform="translate(0.000000,104.000000) scale(0.100000,-0.100000)"
fill="#000000" stroke="none">
<path d="M139 597 c-40 -83 -62 -166 -42 -154 6 4 14 19 17 34 6 24 64 160 73
173 5 6 122 -59 165 -92 22 -17 43 -46 54 -73 18 -48 38 -53 24 -6 -18 64 -85
124 -199 177 l-52 24 -40 -83z"/>
<path d="M784 645 c-108 -55 -184 -133 -184 -190 0 -28 15 -15 34 30 20 51 63
90 147 134 60 33 79 38 79 21 0 -5 13 -38 30 -73 16 -35 33 -78 36 -95 9 -43
28 -41 21 1 -9 57 -78 197 -96 197 -10 0 -39 -11 -67 -25z"/>
<path d="M238 523 c-22 -25 -35 -87 -17 -81 8 3 16 17 19 33 11 59 62 56 75
-6 9 -41 29 -38 21 4 -7 35 -38 67 -66 67 -9 0 -24 -8 -32 -17z"/>
<path d="M745 510 c-17 -33 -20 -70 -5 -70 6 0 10 11 10 24 0 28 24 56 47 56
8 0 22 -18 30 -40 9 -22 20 -40 25 -40 11 0 10 11 -3 49 -20 57 -79 70 -104
21z"/>
</g>
</svg>
