<?xml version="1.0" standalone="no"?>
<!DOCTYPE svg PUBLIC "-//W3C//DTD SVG 20010904//EN"
 "http://www.w3.org/TR/2001/REC-SVG-20010904/DTD/svg10.dtd">
<svg version="1.0" xmlns="http://www.w3.org/2000/svg"
 width="104.000000pt" height="104.000000pt" viewBox="0 0 104.000000 104.000000"
 preserveAspectRatio="xMidYMid meet">
<metadata>
Created by potrace 1.16, written by Peter Selinger 2001-2019
</metadata>
<g transform="translate(0.000000,104.000000) scale(0.100000,-0.100000)"
fill="#000000" stroke="none">
<path d="M738 924 c-35 -18 -71 -72 -143 -209 -174 -333 -199 -374 -285 -468
-55 -61 -121 -94 -165 -83 -14 4 -25 2 -25 -4 0 -17 50 -23 92 -10 90 26 217
190 347 447 21 41 21 42 48 28 36 -19 104 -19 150 0 20 8 38 13 41 11 18 -19
-74 -202 -154 -307 -106 -139 -274 -249 -380 -249 -56 0 -72 -13 -29 -24 75
-19 227 56 341 169 87 85 129 145 193 272 51 101 71 184 71 299 0 77 -3 95
-21 118 -23 29 -42 32 -81 10z m74 -36 c12 -24 15 -160 3 -197 -8 -26 -81 -61
-127 -61 -35 0 -98 17 -98 27 0 3 19 42 43 86 77 145 147 202 179 145z"/>
</g>
</svg>
