<?xml version="1.0" standalone="no"?>
<!DOCTYPE svg PUBLIC "-//W3C//DTD SVG 20010904//EN"
 "http://www.w3.org/TR/2001/REC-SVG-20010904/DTD/svg10.dtd">
<svg version="1.0" xmlns="http://www.w3.org/2000/svg"
 width="104.000000pt" height="104.000000pt" viewBox="0 0 104.000000 104.000000"
 preserveAspectRatio="xMidYMid meet">
<metadata>
Created by potrace 1.16, written by Peter Selinger 2001-2019
</metadata>
<g transform="translate(0.000000,104.000000) scale(0.100000,-0.100000)"
fill="#000000" stroke="none">
<path d="M705 781 c-21 -12 -41 -41 -62 -87 -36 -77 -75 -231 -62 -240 11 -6
13 0 33 96 20 92 54 168 92 204 33 29 53 32 92 12 62 -32 90 -82 121 -218 22
-95 39 -143 47 -135 7 6 -41 205 -62 262 -19 50 -41 78 -85 104 -42 26 -75 26
-114 2z"/>
<path d="M199 733 c-22 -20 -48 -50 -56 -67 -17 -32 -74 -268 -67 -275 9 -10
18 15 44 123 41 169 87 236 163 236 64 0 107 -70 148 -237 12 -51 26 -93 31
-93 20 0 -34 219 -67 277 -49 82 -128 97 -196 36z"/>
<path d="M763 663 c-23 -42 -43 -125 -43 -177 0 -35 -13 -46 -51 -46 -10 0
-19 -4 -19 -10 0 -11 15 -13 57 -4 30 6 30 8 36 77 7 83 33 167 52 167 21 0
55 -82 72 -174 8 -47 19 -86 24 -86 12 0 11 18 -6 102 -18 85 -31 123 -59 161
-26 36 -38 34 -63 -10z"/>
<path d="M237 669 c-26 -15 -62 -96 -76 -169 -7 -36 -15 -75 -18 -87 -3 -13 0
-23 5 -23 6 0 16 26 22 58 19 95 40 160 59 183 l18 23 16 -25 c21 -32 36 -102
37 -165 0 -56 8 -64 61 -64 40 0 37 18 -3 22 -33 3 -33 3 -40 70 -7 76 -20
121 -46 160 -14 21 -21 24 -35 17z"/>
</g>
</svg>
