<?xml version="1.0" standalone="no"?>
<!DOCTYPE svg PUBLIC "-//W3C//DTD SVG 20010904//EN"
 "http://www.w3.org/TR/2001/REC-SVG-20010904/DTD/svg10.dtd">
<svg version="1.0" xmlns="http://www.w3.org/2000/svg"
 width="104.000000pt" height="104.000000pt" viewBox="0 0 104.000000 104.000000"
 preserveAspectRatio="xMidYMid meet">
<metadata>
Created by potrace 1.16, written by Peter Selinger 2001-2019
</metadata>
<g transform="translate(0.000000,104.000000) scale(0.100000,-0.100000)"
fill="#000000" stroke="none">
<path d="M116 711 c-4 -5 -1 -13 4 -16 22 -14 70 -89 70 -110 0 -11 -6 -30
-14 -40 -12 -17 -15 -16 -61 18 -47 36 -65 45 -65 30 1 -7 67 -62 102 -84 5
-3 12 -21 14 -40 8 -53 35 -90 83 -116 57 -30 115 -30 157 -1 97 67 98 209 2
268 -43 26 -122 27 -164 1 l-30 -19 -27 43 c-33 52 -63 80 -71 66z m281 -107
c43 -28 65 -74 60 -127 -2 -27 -11 -55 -19 -64 -14 -13 -16 -12 -21 9 -8 30
-56 58 -100 58 -39 0 -77 -36 -77 -71 0 -27 -13 -23 -31 9 -27 45 -30 78 -13
121 31 79 131 111 201 65z"/>
<path d="M896 663 c-15 -21 -31 -44 -36 -52 -7 -13 -15 -12 -51 4 -109 49
-216 -10 -227 -125 -14 -151 184 -232 277 -113 12 14 27 46 33 71 9 35 21 52
62 84 28 22 53 44 54 49 7 18 -14 8 -57 -26 -24 -19 -47 -35 -51 -35 -8 0 -30
46 -30 62 0 6 18 35 40 65 24 31 35 53 27 53 -7 0 -26 -17 -41 -37z m-98 -67
c81 -42 104 -155 42 -211 -20 -18 -20 -17 -20 7 0 43 -36 78 -80 78 -45 0 -97
-37 -102 -73 -3 -19 -5 -17 -20 15 -23 47 -23 95 1 134 34 56 120 80 179 50z"/>
</g>
</svg>
