<?xml version="1.0" standalone="no"?>
<!DOCTYPE svg PUBLIC "-//W3C//DTD SVG 20010904//EN"
 "http://www.w3.org/TR/2001/REC-SVG-20010904/DTD/svg10.dtd">
<svg version="1.0" xmlns="http://www.w3.org/2000/svg"
 width="104.000000pt" height="104.000000pt" viewBox="0 0 104.000000 104.000000"
 preserveAspectRatio="xMidYMid meet">
<metadata>
Created by potrace 1.16, written by Peter Selinger 2001-2019
</metadata>
<g transform="translate(0.000000,104.000000) scale(0.100000,-0.100000)"
fill="#000000" stroke="none">
<path d="M160 630 c-23 -43 -41 -108 -56 -200 -8 -52 -18 -105 -21 -117 -3
-13 -1 -23 5 -23 11 0 19 38 42 180 14 87 36 140 58 140 14 0 51 -25 98 -66
25 -23 88 -120 98 -151 4 -13 14 -23 22 -23 24 0 -42 115 -103 180 -28 30 -70
65 -92 78 l-40 22 -11 -20z"/>
<path d="M749 622 c-70 -47 -141 -126 -178 -199 -24 -48 -25 -53 -11 -53 5 0
19 19 31 43 50 98 145 197 190 197 24 0 45 -67 66 -206 9 -63 20 -114 25 -114
4 0 8 8 8 18 0 42 -32 213 -51 270 -22 68 -35 75 -80 44z"/>
<path d="M219 423 c-18 -47 -28 -117 -19 -127 11 -11 14 -2 26 67 5 27 14 49
19 50 6 1 19 -17 30 -40 21 -44 35 -55 35 -27 0 30 -51 104 -72 104 -5 0 -13
-12 -19 -27z"/>
<path d="M691 415 c-30 -34 -42 -85 -21 -85 6 0 10 7 10 16 0 19 31 74 41 74
4 0 13 -26 20 -57 15 -70 29 -90 29 -42 0 40 -28 129 -40 129 -4 0 -22 -16
-39 -35z"/>
</g>
</svg>
