<?xml version="1.0" standalone="no"?>
<!DOCTYPE svg PUBLIC "-//W3C//DTD SVG 20010904//EN"
 "http://www.w3.org/TR/2001/REC-SVG-20010904/DTD/svg10.dtd">
<svg version="1.0" xmlns="http://www.w3.org/2000/svg"
 width="104.000000pt" height="104.000000pt" viewBox="0 0 104.000000 104.000000"
 preserveAspectRatio="xMidYMid meet">
<metadata>
Created by potrace 1.16, written by Peter Selinger 2001-2019
</metadata>
<g transform="translate(0.000000,104.000000) scale(0.100000,-0.100000)"
fill="#000000" stroke="none">
<path d="M418 973 c-7 -16 -60 -77 -118 -138 -81 -84 -114 -127 -142 -185 -79
-160 -78 -270 2 -437 35 -71 45 -84 82 -101 52 -25 255 -47 341 -37 114 12
134 41 71 101 -36 34 -37 34 -32 102 4 56 15 90 66 197 96 207 99 228 47 371
-19 53 -35 105 -35 115 0 11 -4 19 -10 19 -17 0 -11 -35 25 -134 53 -146 50
-166 -52 -373 -57 -117 -58 -119 -58 -205 0 -84 -1 -88 -22 -88 -25 0 -43 -27
-43 -64 0 -39 -18 -31 -26 10 -10 54 -10 191 0 254 6 41 5 52 -3 44 -19 -18
-33 -134 -26 -217 l7 -78 -26 26 c-33 33 -57 29 -76 -12 -23 -50 -55 -45 -69
12 -16 65 -64 85 -107 44 l-22 -20 -32 88 c-28 74 -33 102 -34 179 -1 89 0 93
44 179 36 72 65 111 157 207 82 86 113 125 113 143 0 33 -8 32 -22 -2z m-124
-801 c27 -51 -15 -68 -68 -27 -19 14 -19 15 -1 35 25 28 52 25 69 -8z m356
-22 c19 -14 22 -22 14 -30 -13 -13 -94 -33 -101 -26 -3 2 -2 18 2 35 4 20 14
31 28 34 12 2 24 5 27 5 3 1 16 -7 30 -18z m-196 -12 c25 -35 20 -44 -19 -40
-37 4 -41 12 -25 43 14 25 25 24 44 -3z"/>
</g>
</svg>
