<?xml version="1.0" encoding="iso-8859-1"?>
<!-- Uploaded to: SVG Repo, www.svgrepo.com, Generator: SVG Repo Mixer Tools -->
<svg fill="#000000" height="800px" width="800px" version="1.1" id="Layer_1" xmlns="http://www.w3.org/2000/svg" xmlns:xlink="http://www.w3.org/1999/xlink" 
	 viewBox="0 0 512 512" xml:space="preserve">
<g>
	<g>
		<path d="M400.056,7.722c-27.915-16.006-63.654-6.321-79.663,21.596c-4.685,8.169-17.674,41.977-38.734,100.789
			c-8.454-1.832-17.034-2.779-25.659-2.779s-17.205,0.947-25.659,2.779c-21.06-58.813-34.049-92.62-38.734-100.789
			c-16.01-27.916-51.746-37.604-79.664-21.595C84.029,23.732,74.34,59.469,90.349,87.387c1.936,3.377,7.086,12.352,67.52,84.444
			c-1.192,1.221-2.376,2.456-3.545,3.722c-25.952,28.152-41.446,63.628-41.446,94.897c0,31.547,15.445,60.931,43.489,82.743
			c6.586,5.122,13.693,9.675,21.219,13.634c-20.941,20.423-33.967,48.927-33.967,80.419v13.642
			c0,28.183,22.929,51.112,51.112,51.112h122.539c18.852,0,35.34-10.267,44.2-25.496c0.391,0.008,0.777,0.029,1.17,0.029
			c30.948,0,56.126-25.178,56.126-56.126c0-30.948-25.178-56.126-56.126-56.126c-6.523,0-12.783,1.13-18.611,3.186
			c-2.978-3.749-6.191-7.301-9.614-10.64c7.528-3.959,14.634-8.512,21.219-13.634c28.044-21.812,43.489-51.196,43.489-82.743
			c0-31.269-15.494-66.745-41.446-94.897c-1.169-1.267-2.353-2.502-3.545-3.722c60.433-72.092,65.583-81.067,67.52-84.444
			C437.66,59.469,427.972,23.732,400.056,7.722z M362.64,407.958c12.379,0,22.45,10.071,22.45,22.45
			c0,10.392-7.108,19.131-16.709,21.679v-4.841c0-13.789-2.502-27.004-7.066-39.221C361.755,408,362.192,407.958,362.64,407.958z
			 M119.562,70.633c-6.771-11.809-2.673-26.926,9.135-33.698c3.863-2.216,8.077-3.267,12.239-3.267
			c8.564,0,16.901,4.455,21.458,12.403c1.532,2.672,8.265,17.237,36.246,95.397c-5.079,2.583-10.061,5.51-14.926,8.766
			C130.178,86.36,121.069,73.261,119.562,70.633z M334.706,447.246v13.642c0,9.614-7.822,17.436-17.436,17.436h-10.756v-31.079
			h-33.676v31.079h-33.676v-31.079h-33.676v31.079h-10.756c-9.614,0-17.436-7.822-17.436-17.436v-13.642
			c0-28.07,14.78-52.738,36.957-66.673c13.369,3.247,27.405,4.935,41.749,4.935c14.342,0,28.38-1.688,41.749-4.935
			C319.925,394.507,334.706,419.177,334.706,447.246z M365.445,270.45c0,44.875-49.097,81.383-109.446,81.383
			s-109.446-36.508-109.446-81.383c0-22.69,12.464-50.305,32.529-72.071c12.867-13.958,39.97-37.374,76.916-37.374
			s64.049,23.416,76.916,37.374C352.981,220.145,365.445,247.76,365.445,270.45z M392.437,70.633
			c-1.508,2.628-10.616,15.727-64.152,79.601c-4.865-3.254-9.847-6.183-14.926-8.766c27.981-78.16,34.714-92.726,36.246-95.398
			c4.557-7.947,12.894-12.402,21.458-12.402c4.162,0,8.377,1.052,12.239,3.265C395.111,43.706,399.209,58.824,392.437,70.633z"/>
	</g>
</g>
<g>
	<g>
		<path d="M256.001,288.971c-12.399,0-22.45,4.17-22.45,13.47c0,9.299,10.051,21.328,22.45,21.328s22.45-12.029,22.45-21.328
			C278.451,293.141,268.4,288.971,256.001,288.971z"/>
	</g>
</g>
<g>
	<g>
		<circle cx="194.263" cy="262.03" r="16.838"/>
	</g>
</g>
<g>
	<g>
		<circle cx="317.74" cy="262.03" r="16.838"/>
	</g>
</g>
</svg>