<svg width="584.5415161132812px" height="120.8px" xmlns="http://www.w3.org/2000/svg" viewBox="-42.2707580566406 14.600000000000001 584.5415161132812 120.8" style="background:#596886" preserveAspectRatio="xMidYMid"><defs><filter id="editing-hover" x="-100%" y="-100%" width="300%" height="300%"><feFlood flood-color="#052b4a" result="flood"></feFlood><feComposite operator="in" in2="SourceAlpha" in="flood" result="shadow"></feComposite><feOffset dx="-4" dy="-4" in="SourceGraphic" result="offset-1"></feOffset><feOffset dx="4" dy="4" in="shadow" result="offset-2"></feOffset><feMerge><feMergeNode in="offset-2"></feMergeNode><feMergeNode in="offset-1"></feMergeNode></feMerge></filter></defs><g filter="url(#editing-hover)"><g transform="translate(42.90241348743439, 104.76000022888184)"><path d="M26.05-29.57L26.05-29.57L26.05-29.57Q27.01-31.49 27.01-33.28L27.01-33.28L27.01-33.28Q27.01-35.07 26.82-36.06L26.82-36.06L26.82-36.06Q26.62-37.06 26.18-37.82L26.18-37.82L26.18-37.82Q25.22-39.49 23.30-39.49L23.30-39.49L23.30-39.49Q20.93-39.49 19.01-37.76L19.01-37.76L19.01-37.76Q16.96-35.97 16.96-33.15L16.96-33.15L16.96-33.15Q16.96-31.36 18.21-29.98L18.21-29.98L18.21-29.98Q19.46-28.61 21.38-27.33L21.38-27.33L21.38-27.33Q23.30-26.05 25.47-24.77L25.47-24.77L25.47-24.77Q27.65-23.49 29.57-21.95L29.57-21.95L29.57-21.95Q33.98-18.43 33.98-13.70L33.98-13.70L33.98-13.70Q33.98-10.50 32.29-7.78L32.29-7.78L32.29-7.78Q30.59-5.06 27.78-3.07L27.78-3.07L27.78-3.07Q21.63 1.28 13.50 1.28L13.50 1.28L13.50 1.28Q6.91 1.28 3.52-0.86L3.52-0.86L3.52-0.86Q0.13-3.01 0.13-6.27L0.13-6.27L0.13-6.27Q0.13-12.10 4.67-13.57L4.67-13.57L4.67-13.57Q5.95-14.02 7.90-14.02L7.90-14.02L7.90-14.02Q9.86-14.02 12.10-13.18L12.10-13.18L12.10-13.18Q11.07-10.56 11.07-8.19L11.07-8.19L11.07-8.19Q11.07-3.07 14.72-3.07L14.72-3.07L14.72-3.07Q17.09-3.07 19.04-4.80L19.04-4.80L19.04-4.80Q20.99-6.53 20.99-8.48L20.99-8.48L20.99-8.48Q20.99-10.43 19.74-11.84L19.74-11.84L19.74-11.84Q18.50-13.25 16.64-14.37L16.64-14.37L16.64-14.37Q14.78-15.49 12.64-16.58L12.64-16.58L12.64-16.58Q10.50-17.66 8.64-19.20L8.64-19.20L8.64-19.20Q4.29-22.72 4.29-28.35L4.29-28.35L4.29-28.35Q4.29-32 6.08-34.85L6.08-34.85L6.08-34.85Q7.87-37.70 10.75-39.62L10.75-39.62L10.75-39.62Q16.51-43.52 23.58-43.52L23.58-43.52L23.58-43.52Q30.66-43.52 34.08-41.41L34.08-41.41L34.08-41.41Q37.50-39.30 37.50-35.71L37.50-35.71L37.50-35.71Q37.50-32.58 35.07-30.59L35.07-30.59L35.07-30.59Q32.96-28.93 30.40-28.93L30.40-28.93L30.40-28.93Q27.84-28.93 26.05-29.57ZM68.67-4.38L68.67-4.38L68.67-4.38Q65.98-1.66 62.30-0.19L62.30-0.19L62.30-0.19Q58.62 1.28 54.98 1.28L54.98 1.28L54.98 1.28Q51.33 1.28 50.05 0.64L50.05 0.64L48.06 11.52L35.07 12.80L43.90-32.64L54.34-33.73L53.50-29.31L53.50-29.31Q56.19-33.86 61.76-33.86L61.76-33.86L61.76-33.86Q68.03-33.86 71.36-29.82L71.36-29.82L71.36-29.82Q74.30-26.18 74.30-20.61L74.30-20.61L74.30-20.61Q74.30-15.04 72.83-11.07L72.83-11.07L72.83-11.07Q71.36-7.10 68.67-4.38ZM54.21-22.34L50.82-3.58L50.82-3.58Q52.16-2.43 53.82-2.43L53.82-2.43L53.82-2.43Q55.49-2.43 56.45-3.07L56.45-3.07L56.45-3.07Q57.41-3.71 58.11-4.99L58.11-4.99L58.11-4.99Q60.03-8.45 61.57-18.94L61.57-18.94L61.57-18.94Q62.02-22.02 62.02-25.02L62.02-25.02L62.02-25.02Q62.02-28.03 61.34-28.99L61.34-28.99L61.34-28.99Q60.67-29.95 59.39-29.95L59.39-29.95L59.39-29.95Q55.49-29.95 54.21-22.34L54.21-22.34ZM93.50-3.52L93.50-3.52L93.50-3.52Q91.52 1.28 85.18 1.28L85.18 1.28L85.18 1.28Q81.92 1.28 79.87-0.96L79.87-0.96L79.87-0.96Q78.14-2.94 78.14-4.93L78.14-4.93L78.14-4.93Q78.14-10.11 80.51-20.22L80.51-20.22L82.88-32.64L95.87-33.92L91.97-13.70L91.97-13.70Q90.88-8.96 90.88-7.30L90.88-7.30L90.88-7.30Q90.88-3.65 93.50-3.52ZM84.03-41.54L84.03-41.54L84.03-41.54Q84.03-44.03 86.11-45.38L86.11-45.38L86.11-45.38Q88.19-46.72 91.20-46.72L91.20-46.72L91.20-46.72Q94.21-46.72 96.03-45.38L96.03-45.38L96.03-45.38Q97.86-44.03 97.86-41.54L97.86-41.54L97.86-41.54Q97.86-39.04 95.84-37.76L95.84-37.76L95.84-37.76Q93.82-36.48 90.82-36.48L90.82-36.48L90.82-36.48Q87.81-36.48 85.92-37.76L85.92-37.76L85.92-37.76Q84.03-39.04 84.03-41.54ZM126.02 1.28L126.02 1.28L126.02 1.28Q118.27 1.28 118.27-4.74L118.27-4.74L118.27-4.74Q118.34-6.40 118.85-9.22L118.85-9.22L120-15.10L120-15.10Q121.73-23.42 121.73-25.28L121.73-25.28L121.73-25.28Q121.73-28.99 119.55-28.99L119.55-28.99L119.55-28.99Q115.90-28.99 113.98-19.46L113.98-19.46L110.21 0L97.34 1.28L104-32.70L114.50-33.92L113.47-27.65L113.47-27.65Q116.48-33.92 125.70-33.92L125.70-33.92L125.70-33.92Q130.18-33.92 132.06-32.03L132.06-32.03L132.06-32.03Q133.95-30.14 133.95-25.92L133.95-25.92L133.95-25.92Q133.95-21.95 131.90-12.67L131.90-12.67L131.90-12.67Q130.94-8.51 130.94-6.94L130.94-6.94L130.94-6.94Q130.94-5.38 131.81-4.48L131.81-4.48L131.81-4.48Q132.67-3.58 133.95-3.46L133.95-3.46L133.95-3.46Q133.31-1.28 131.10 0L131.10 0L131.10 0Q128.90 1.28 126.02 1.28ZM162.18-29.50L155.39-29.50L155.39-29.50Q157.76-37.70 157.89-46.34L157.89-46.34L159.74-46.59L159.74-46.59Q160.70-46.72 161.41-46.72L161.41-46.72L161.41-46.72Q164.22-46.72 165.76-45.34L165.76-45.34L165.76-45.34Q167.30-43.97 167.30-41.54L167.30-41.54L167.30-41.54Q167.30-38.98 166.14-36.16L166.14-36.16L166.14-36.16Q164.10-31.17 162.18-29.50L162.18-29.50ZM173.63 0L166.59 0L174.27-42.24L188.03-42.24L198.02-13.18L203.33-42.24L210.43-42.18L202.62 0L187.97 0L178.75-27.97L173.63 0ZM221.95-29.50L215.17-29.50L215.17-29.50Q217.54-37.70 217.66-46.34L217.66-46.34L219.52-46.59L219.52-46.59Q220.48-46.72 221.18-46.72L221.18-46.72L221.18-46.72Q224.00-46.72 225.54-45.34L225.54-45.34L225.54-45.34Q227.07-43.97 227.07-41.54L227.07-41.54L227.07-41.54Q227.07-38.98 225.92-36.16L225.92-36.16L225.92-36.16Q223.87-31.17 221.95-29.50L221.95-29.50ZM281.54-26.56L281.54-26.56L281.54-26.56Q281.54 0.70 251.97 0.70L251.97 0.70L251.97 0.70Q247.23 0.70 239.42-0.45L239.42-0.45L246.59-38.27L246.59-38.27Q247.10-40.83 247.42-42.30L247.42-42.30L247.42-42.30Q257.15-43.01 261.47-43.01L261.47-43.01L261.47-43.01Q265.79-43.01 269.76-42.11L269.76-42.11L269.76-42.11Q273.73-41.22 276.35-39.23L276.35-39.23L276.35-39.23Q281.54-35.33 281.54-26.56ZM268.35-28.93L268.35-28.93L268.35-28.93Q268.35-38.46 261.50-38.46L261.50-38.46L260.86-38.46L260.86-38.46Q260.54-38.46 260.22-38.40L260.22-38.40L253.63-4.03L253.63-4.03Q253.89-3.90 254.14-3.90L254.14-3.90L254.66-3.90L254.66-3.90Q257.02-3.90 259.49-5.38L259.49-5.38L259.49-5.38Q261.95-6.85 263.87-9.86L263.87-9.86L263.87-9.86Q268.35-16.83 268.35-28.93ZM304.83-17.98L304.83-17.98L304.83-17.98Q307.14-22.08 307.14-26.24L307.14-26.24L307.14-26.24Q307.14-28.99 305.15-28.99L305.15-28.99L305.15-28.99Q303.62-28.99 302.02-26.37L302.02-26.37L302.02-26.37Q300.35-23.74 299.84-20.35L299.84-20.35L296.51 0L283.26 1.28L289.79-32.64L300.35-33.92L299.20-27.46L299.20-27.46Q302.34-33.92 309.38-33.92L309.38-33.92L309.38-33.92Q313.09-33.92 315.10-32L315.10-32L315.10-32Q317.12-30.08 317.12-26.14L317.12-26.14L317.12-26.14Q317.12-22.21 314.53-19.71L314.53-19.71L314.53-19.71Q311.94-17.22 307.52-17.22L307.52-17.22L307.52-17.22Q305.60-17.22 304.83-17.98ZM320.93-1.92L320.93-1.92L320.93-1.92Q319.42-3.58 318.75-6.21L318.75-6.21L318.75-6.21Q318.08-8.83 318.08-13.12L318.08-13.12L318.08-13.12Q318.08-17.41 319.55-21.31L319.55-21.31L319.55-21.31Q321.02-25.22 323.71-28.03L323.71-28.03L323.71-28.03Q329.22-33.92 338.30-33.92L338.30-33.92L338.30-33.92Q341.57-33.92 343.94-32.83L343.94-32.83L354.88-33.92L350.14-8.96L350.14-8.96Q349.95-8.19 349.95-6.78L349.95-6.78L349.95-6.78Q349.95-5.38 350.82-4.48L350.82-4.48L350.82-4.48Q351.68-3.58 352.96-3.46L352.96-3.46L352.96-3.46Q352.32-1.28 349.98 0L349.98 0L349.98 0Q347.65 1.28 345.02 1.28L345.02 1.28L345.02 1.28Q342.40 1.28 340.64 0.29L340.64 0.29L340.64 0.29Q338.88-0.70 338.37-2.37L338.37-2.37L338.37-2.37Q337.34-0.77 335.17 0.26L335.17 0.26L335.17 0.26Q332.99 1.28 330.08 1.28L330.08 1.28L330.08 1.28Q327.17 1.28 324.80 0.51L324.80 0.51L324.80 0.51Q322.43-0.26 320.93-1.92ZM334.43-27.90L334.43-27.90L334.43-27.90Q333.70-26.75 333.06-24.80L333.06-24.80L333.06-24.80Q332.42-22.85 331.36-17.63L331.36-17.63L331.36-17.63Q330.30-12.42 330.30-8.70L330.30-8.70L330.30-8.70Q330.30-4.99 330.88-3.90L330.88-3.90L330.88-3.90Q331.46-2.82 332.48-2.82L332.48-2.82L332.48-2.82Q334.53-2.82 336.03-4.77L336.03-4.77L336.03-4.77Q337.54-6.72 338.11-10.18L338.11-10.18L341.50-28.93L341.50-28.93Q340.16-30.08 338.59-30.08L338.59-30.08L338.59-30.08Q337.02-30.08 336.10-29.57L336.10-29.57L336.10-29.57Q335.17-29.06 334.43-27.90ZM406.08-10.69L406.08-10.69Q401.86-4.86 397.79-1.79L397.79-1.79L397.79-1.79Q393.73 1.28 389.54 1.28L389.54 1.28L389.54 1.28Q385.34 1.28 383.87 0.45L383.87 0.45L383.87-13.63L383.87-13.63Q380.22-3.90 373.70-0.13L373.70-0.13L373.70-0.13Q371.33 1.28 369.09 1.28L369.09 1.28L369.09 1.28Q364.80 1.28 362.94 0.45L362.94 0.45L362.94 0.45Q362.50-14.21 362.11-18.27L362.11-18.27L362.11-18.27Q361.73-22.34 361.41-24.83L361.41-24.83L361.41-24.83Q360.77-29.82 358.59-31.87L358.59-31.87L358.59-31.87Q361.34-33.92 365.18-33.92L365.18-33.92L365.18-33.92Q372.61-33.92 373.63-24.70L373.63-24.70L373.63-24.70Q373.89-22.53 373.89-20.22L373.89-20.22L373.89-20.22Q373.89-16.77 373.12-4.74L373.12-4.74L373.12-4.74Q374.66-5.44 376.29-7.97L376.29-7.97L376.29-7.97Q377.92-10.50 379.26-13.95L379.26-13.95L379.26-13.95Q382.27-21.95 382.27-28.86L382.27-28.86L382.27-28.86Q382.27-29.95 381.98-31.10L381.98-31.10L381.98-31.10Q381.70-32.26 381.38-32.58L381.38-32.58L381.38-32.58Q383.62-33.92 387.04-33.92L387.04-33.92L387.04-33.92Q390.46-33.92 392.10-31.58L392.10-31.58L392.10-31.58Q393.73-29.25 394.18-24.96L394.18-24.96L394.18-24.96Q394.69-19.52 394.69-16.26L394.69-16.26L394.69-16.26Q394.69-11.71 394.24-4.99L394.24-4.99L394.24-4.99Q397.44-7.30 400.06-14.85L400.06-14.85L400.06-14.85Q402.69-22.40 402.69-27.78L402.69-27.78L402.69-27.78Q402.69-30.14 402.30-31.55L402.30-31.55L402.30-31.55Q404.42-33.92 408.06-33.92L408.06-33.92L408.06-33.92Q410.30-33.92 411.94-32.70L411.94-32.70L411.94-32.70Q413.57-31.49 413.57-29.22L413.57-29.22L413.57-29.22Q413.57-26.94 412.90-24.51L412.90-24.51L412.90-24.51Q412.22-22.08 411.14-19.58L411.14-19.58L411.14-19.58Q409.02-14.59 406.08-10.69L406.08-10.69Z" fill="#ffd5af"></path></g></g><style>text {
  font-size: 64px;
  font-family: Arial Black;
  dominant-baseline: central;
  text-anchor: middle;
}</style></svg>